<svg xmlns="http://www.w3.org/2000/svg" width="700" height="306" viewBox="0 0 700 306" font-family="system-ui,-apple-system,&quot;Segoe UI&quot;,sans-serif" role="img" aria-label="Utility with and without an attack. Guards off completes 97 percent of benign work but 37 percent under attack. Egress guard holds 95 percent in both.">
<rect width="700" height="306" fill="#fcfcfb"/>
<text x="24" y="32" font-size="17" font-weight="600" fill="#0b0b0b">Did the real work still get done?</text>
<text x="24" y="52" font-size="12.5" fill="#52514e">Higher is better.</text>
<rect x="24" y="66" width="11" height="11" rx="2.5" fill="#2a78d6"/>
<text x="41" y="75.5" font-size="12" fill="#52514e">no attack present</text>
<rect x="169.8" y="66" width="11" height="11" rx="2.5" fill="#eb6834"/>
<text x="186.8" y="75.5" font-size="12" fill="#52514e">under attack</text>
<line x1="140.0" y1="82" x2="140.0" y2="258" stroke="#c3c2b7" stroke-width="1"/>
<text x="140.0" y="276" font-size="11" fill="#898781" text-anchor="middle">0%</text>
<line x1="240.8" y1="82" x2="240.8" y2="258" stroke="#e1e0d9" stroke-width="1"/>
<text x="240.8" y="276" font-size="11" fill="#898781" text-anchor="middle">20%</text>
<line x1="341.6" y1="82" x2="341.6" y2="258" stroke="#e1e0d9" stroke-width="1"/>
<text x="341.6" y="276" font-size="11" fill="#898781" text-anchor="middle">40%</text>
<line x1="442.4" y1="82" x2="442.4" y2="258" stroke="#e1e0d9" stroke-width="1"/>
<text x="442.4" y="276" font-size="11" fill="#898781" text-anchor="middle">60%</text>
<line x1="543.2" y1="82" x2="543.2" y2="258" stroke="#e1e0d9" stroke-width="1"/>
<text x="543.2" y="276" font-size="11" fill="#898781" text-anchor="middle">80%</text>
<line x1="644.0" y1="82" x2="644.0" y2="258" stroke="#e1e0d9" stroke-width="1"/>
<text x="644.0" y="276" font-size="11" fill="#898781" text-anchor="middle">100%</text>
<text x="126" y="114" font-size="12.5" font-weight="600" fill="#0b0b0b" text-anchor="end">guards off</text>
<rect x="140" y="92" width="488.9" height="17" rx="3.5" fill="#2a78d6"/>
<text x="635.9" y="104.5" font-size="11.5" font-weight="600" fill="#52514e">97%</text>
<rect x="140" y="113" width="186.5" height="17" rx="3.5" fill="#eb6834"/>
<text x="333.5" y="125.5" font-size="11.5" font-weight="600" fill="#52514e">37%</text>
<text x="126" y="176" font-size="12.5" font-weight="600" fill="#0b0b0b" text-anchor="end">egress guard</text>
<rect x="140" y="154" width="478.8" height="17" rx="3.5" fill="#2a78d6"/>
<text x="625.8" y="166.5" font-size="11.5" font-weight="600" fill="#52514e">95%</text>
<rect x="140" y="175" width="478.8" height="17" rx="3.5" fill="#eb6834"/>
<text x="625.8" y="187.5" font-size="11.5" font-weight="600" fill="#52514e">95%</text>
<text x="126" y="238" font-size="12.5" font-weight="600" fill="#0b0b0b" text-anchor="end">all guards</text>
<rect x="140" y="216" width="463.7" height="17" rx="3.5" fill="#2a78d6"/>
<text x="610.7" y="228.5" font-size="11.5" font-weight="600" fill="#52514e">92%</text>
<rect x="140" y="237" width="488.9" height="17" rx="3.5" fill="#eb6834"/>
<text x="635.9" y="249.5" font-size="11.5" font-weight="600" fill="#52514e">97%</text></svg>