<svg xmlns="http://www.w3.org/2000/svg" width="700" height="290" viewBox="0 0 700 290" font-family="system-ui,-apple-system,&quot;Segoe UI&quot;,sans-serif" role="img" aria-label="Time to catch. A brand new address is caught at command 10 of 13, its sibling at command 5 of 9, and a never seen host in the same family at command 4 of 7.">
<rect width="700" height="290" fill="#fcfcfb"/>
<text x="24" y="32" font-size="17" font-weight="600" fill="#0b0b0b">Caught earlier the second time</text>
<text x="24" y="52" font-size="12.5" fill="#52514e">One agent, one memory. Each square is one command it ran.</text>
<rect x="24" y="66" width="11" height="11" rx="2.5" fill="#86b6ef"/>
<text x="41" y="75.5" font-size="12" fill="#52514e">before the catch</text>
<rect x="163.4" y="66" width="11" height="11" rx="2.5" fill="#104281"/>
<text x="180.4" y="75.5" font-size="12" fill="#52514e">caught</text>
<rect x="238.8" y="66" width="11" height="11" rx="2.5" fill="#cde2fb" stroke="#c3c2b7"/>
<text x="255.8" y="75.5" font-size="12" fill="#52514e">carried on, finished the task</text>
<text x="160" y="118" font-size="12.5" font-weight="600" fill="#0b0b0b" text-anchor="end">brand-new address</text>
<text x="160" y="133" font-size="10.5" fill="#898781" text-anchor="end">caught 80%</text>
<rect x="176" y="100" width="26" height="24" rx="4" fill="#86b6ef"/>
<rect x="207" y="100" width="26" height="24" rx="4" fill="#86b6ef"/>
<rect x="238" y="100" width="26" height="24" rx="4" fill="#86b6ef"/>
<rect x="269" y="100" width="26" height="24" rx="4" fill="#86b6ef"/>
<rect x="300" y="100" width="26" height="24" rx="4" fill="#86b6ef"/>
<rect x="331" y="100" width="26" height="24" rx="4" fill="#86b6ef"/>
<rect x="362" y="100" width="26" height="24" rx="4" fill="#86b6ef"/>
<rect x="393" y="100" width="26" height="24" rx="4" fill="#86b6ef"/>
<rect x="424" y="100" width="26" height="24" rx="4" fill="#86b6ef"/>
<rect x="455" y="100" width="26" height="24" rx="4" fill="#104281"/>
<text x="468" y="117" font-size="11" font-weight="600" fill="#ffffff" text-anchor="middle">10</text>
<rect x="486" y="100" width="26" height="24" rx="4" fill="#cde2fb" stroke="#c3c2b7"/>
<rect x="517" y="100" width="26" height="24" rx="4" fill="#cde2fb" stroke="#c3c2b7"/>
<rect x="548" y="100" width="26" height="24" rx="4" fill="#cde2fb" stroke="#c3c2b7"/>
<text x="585" y="117" font-size="11.5" font-weight="600" fill="#0b0b0b">10/13</text>
<text x="160" y="176" font-size="12.5" font-weight="600" fill="#0b0b0b" text-anchor="end">its sibling</text>
<text x="160" y="191" font-size="10.5" fill="#898781" text-anchor="end">caught 100%</text>
<rect x="176" y="158" width="26" height="24" rx="4" fill="#86b6ef"/>
<rect x="207" y="158" width="26" height="24" rx="4" fill="#86b6ef"/>
<rect x="238" y="158" width="26" height="24" rx="4" fill="#86b6ef"/>
<rect x="269" y="158" width="26" height="24" rx="4" fill="#86b6ef"/>
<rect x="300" y="158" width="26" height="24" rx="4" fill="#104281"/>
<text x="313" y="175" font-size="11" font-weight="600" fill="#ffffff" text-anchor="middle">5</text>
<rect x="331" y="158" width="26" height="24" rx="4" fill="#cde2fb" stroke="#c3c2b7"/>
<rect x="362" y="158" width="26" height="24" rx="4" fill="#cde2fb" stroke="#c3c2b7"/>
<rect x="393" y="158" width="26" height="24" rx="4" fill="#cde2fb" stroke="#c3c2b7"/>
<rect x="424" y="158" width="26" height="24" rx="4" fill="#cde2fb" stroke="#c3c2b7"/>
<text x="461" y="175" font-size="11.5" font-weight="600" fill="#0b0b0b">5/9</text>
<text x="160" y="234" font-size="12.5" font-weight="600" fill="#0b0b0b" text-anchor="end">never seen, same family</text>
<text x="160" y="249" font-size="10.5" fill="#898781" text-anchor="end">caught 73%</text>
<rect x="176" y="216" width="26" height="24" rx="4" fill="#86b6ef"/>
<rect x="207" y="216" width="26" height="24" rx="4" fill="#86b6ef"/>
<rect x="238" y="216" width="26" height="24" rx="4" fill="#86b6ef"/>
<rect x="269" y="216" width="26" height="24" rx="4" fill="#104281"/>
<text x="282" y="233" font-size="11" font-weight="600" fill="#ffffff" text-anchor="middle">4</text>
<rect x="300" y="216" width="26" height="24" rx="4" fill="#cde2fb" stroke="#c3c2b7"/>
<rect x="331" y="216" width="26" height="24" rx="4" fill="#cde2fb" stroke="#c3c2b7"/>
<rect x="362" y="216" width="26" height="24" rx="4" fill="#cde2fb" stroke="#c3c2b7"/>
<text x="399" y="233" font-size="11.5" font-weight="600" fill="#0b0b0b">4/7</text></svg>